<svg xmlns="http://www.w3.org/2000/svg" width="800" height="800" viewBox="10 0 800 800"><style>.a{fill:#FFFCDD;}.b{fill:#AC1F24;}.c{fill:#FFF;}</style><defs><pattern x="10" y="800" width="160" height="240" patternUnits="userSpaceOnUse" viewBox="0 -240 160 240"><polygon points="0 0 160 0 160 -240 0 -240 " fill="none"/><polygon points="30 -240 0 -222 0 -192 80 -240 " class="a"/><polygon points="30 0 80 0 130 0 80 -30 " class="a"/><polygon points="0 -240 0 -222 30 -240 " class="b"/><polygon points="160 -192 160 -222 130 -240 80 -240 " class="a"/><polygon points="160 -240 130 -240 160 -222 " class="b"/><polygon points="0 -42 0 -12 80 -60 160 -12 160 -42 80 -90 " class="a"/><polygon points="0 -162 0 -132 80 -180 160 -132 160 -162 80 -210 " fill="#9B5B36"/><polygon points="80 -240 0 -192 0 -162 80 -210 160 -162 160 -192 " fill="#D3AF72"/><polygon points="0 -132 0 -102 80 -150 160 -102 160 -132 80 -180 " class="a"/><polygon points="0 -102 0 -72 80 -120 160 -72 160 -102 80 -150 " fill="#4999C3"/><polygon points="0 -12 0 0 30 0 80 -30 130 0 160 0 160 -12 80 -60 " class="b"/><polygon points="0 -72 0 -42 80 -90 160 -42 160 -72 80 -120 " fill="#00627D"/></pattern></defs><rect x="10" width="800" height="800" fill="url(#New_Pattern_Swatch_18)"/><path d="M417 707c-4-36 0-90 2-136 2-37-2-63 22-75 -9-15-20-27-24-46 44 0 70-30 97-39C494 521 460 618 417 707z" class="c"/><path d="M349 429c23-5 38 17 63 17 -3 19-20 23-27 39 16 70-13 148-17 221C362 616 348 520 349 429z" class="c"/><path d="M206 604c24-2 70-7 90 2 -15 16-58 3-85 7C210 610 209 606 206 604z" class="c"/><path d="M1 864C37 775 111 591 145 500c61-23 118-51 180-73 -31-17-42-75-46-129 -1-16-2-31 0-41 2-11 15-25 15-34 0-11-13-21-15-32 -6-38 25-67 39-95 -22-15-2-55 22-61 26-6 73 15 119 15 43 0 78-2 97 27 33 49 32 114-5 153 14 44-24 72-46 95 3 25 6 51 7 78 76 50 164 87 248 129 12 107 18 209 32 319C796 884-27 854 1 864zM514 410c-27 9-54 39-97 39 4 20 16 31 24 46 -24 13-20 39-22 75 -2 46-6 100-2 136C460 618 494 521 514 410zM369 707c4-73 33-151 17-221 6-15 24-20 27-39 -25 0-41-22-63-17C348 520 362 616 369 707zM211 614c27-4 70 9 85-7 -20-10-66-5-90-2C209 606 210 610 211 614z"/></svg>
